<svg width="64" height="64" viewBox="0 0 64 64" fill="none" xmlns="http://www.w3.org/2000/svg">
<rect width="64" height="64" fill="white"/>
<path d="M39.6836 30.1873C41.587 31.5716 44.816 34.896 46.6015 39.5064" stroke="#333333" stroke-width="1.5" stroke-linejoin="round"/>
<path d="M32.6015 61.1265C25.0785 61.1265 18.7034 57.3956 17.2539 49.6812M32.2281 61.1265C39.7511 61.1265 46.1262 57.3956 47.5751 49.6812" stroke="#333333" stroke-width="1.5" stroke-linejoin="round"/>
<path d="M25.1461 30.1873C23.2427 31.5716 20.0136 34.896 18.2281 39.5064" stroke="#333333" stroke-width="1.5" stroke-linejoin="round"/>
<path d="M30.9174 12.4279C31.4993 9.62905 32.1766 6.04624 32.6015 3.7215C33.0258 6.04624 33.7037 9.62905 34.2857 12.4279M30.9174 12.4279C30.4237 14.8012 29.9988 16.611 29.8548 16.611C29.7008 16.611 28.5144 15.9271 27.1082 15.0981C24.9387 13.8187 22.246 12.192 22.0077 12.192C21.8009 12.192 23.2326 15.1668 24.6317 18.0842M30.9174 12.4279C29.6474 11.4898 27.03 9.61364 26.7159 9.61364C26.3236 9.61364 26.9417 14.9997 27.1082 15.0975M24.6317 18.0842C25.8833 20.6951 27.1082 23.2605 27.1082 23.6083C27.1082 23.939 25.6036 23.3037 23.875 22.5037C23.4857 22.3248 21.6836 18.7467 20.8308 16.9796L24.6317 18.0842ZM23.875 22.5031C21.7559 21.5224 19.3008 20.2933 18.8688 20.2933C18.0842 20.2933 25.1461 33.9194 32.6009 34.2874C40.0557 33.9194 47.1177 20.2933 46.3331 20.2933C45.9011 20.2933 43.446 21.5218 41.3268 22.5031M38.0942 15.0975C38.2608 14.9997 38.8788 9.61364 38.4865 9.61364C38.1725 9.61364 35.5544 11.4898 34.2851 12.4279C34.7787 14.8012 35.2036 16.611 35.3476 16.611C35.5017 16.611 36.688 15.9271 38.0942 15.0981C40.2637 13.8187 42.9565 12.192 43.1947 12.192C43.4021 12.192 41.9698 15.1668 40.5707 18.0842M40.5707 18.0842C39.3191 20.6951 38.0942 23.2605 38.0942 23.6083C38.0942 23.939 39.5988 23.3037 41.3274 22.5037C41.7168 22.3248 43.5188 18.7467 44.3716 16.9796L40.5707 18.0842Z" stroke="#333333" stroke-width="1.5" stroke-linejoin="round"/>
<path d="M32.6015 42.1156H31.4833L29.9924 39.5064H15.0815L15.4543 46.9618C15.827 48.4527 17.9894 50.6892 19.1817 50.6892H27.0098C28.0036 50.3165 29.5207 49.1218 29.9918 47.7073C30.3645 46.589 30.489 45.5947 30.7372 45.4708H32.601M32.2282 42.1156H33.3464L34.8374 39.5064H49.7482L49.3755 46.9618C49.0027 48.4527 46.8404 50.6892 45.6481 50.6892H37.8199C36.8255 50.3165 35.3091 49.1218 34.838 47.7073C34.4652 46.589 34.3408 45.5947 34.0925 45.4708H32.2288M17.6907 41.3701H28.1281V46.589C27.3826 47.3345 25.817 48.8255 25.5189 48.8255H20.6732C20.3752 48.8255 18.5607 47.0856 17.6913 46.2163V41.3701H17.6907ZM47.139 41.3701H36.7017V46.589C37.4472 47.3345 39.0128 48.8255 39.3109 48.8255H44.1565C44.4546 48.8255 46.2685 47.0856 47.1384 46.2163V41.3701H47.139Z" stroke="#333333" stroke-width="1.5" stroke-linejoin="round"/>
<path d="M22.2969 32.8C24.8154 34.4498 27.267 36.7615 29.504 39.4732M39.4406 59.6545C38.7496 56.2714 37.4785 52.717 35.7985 49.2924M21.0489 34.3733C23.0987 36.0741 24.8889 37.7819 26.4539 39.4732M37.4874 60.5772C36.7597 57.1799 35.3227 51.635 31.1402 45.3849M19.5846 36.7609C20.605 37.6065 21.5834 38.5162 22.5173 39.4738M34.4492 61.0655C33.8939 57.763 32.1754 53.2681 29.5247 48.7502M27.7766 50.2151C29.6753 52.5482 32.0083 58.7324 32.4421 61.0655M24.1956 50.6489C26.7994 53.7956 28.3727 58.2442 28.861 60.848M21.7547 50.6489C23.6533 52.6021 26.0403 58.2441 26.3117 60.3058M24.1956 31.0643C28.2009 33.2255 31.6178 36.6661 34.3781 40.3953M42.5327 58.0273C42.5327 56.8261 41.7582 54.0439 40.2756 50.6489M32.4421 34.3733C34.109 35.9662 35.5876 37.6913 36.8877 39.4732M44.323 56.6169C44.0634 54.9144 43.552 52.8687 42.7674 50.6489M36.077 33.2883C38.4101 34.6447 40.5979 37.8453 41.1769 39.4732M37.9212 32.0409C41.1763 34.9707 42.5867 37.2492 43.4548 39.4732" stroke="#333333" stroke-width="1.5" stroke-linejoin="round"/>
</svg>
