<svg width="24" height="24" viewBox="0 0 24 24" fill="none" xmlns="http://www.w3.org/2000/svg">
<g clip-path="url(#clip0_121_116)">
<path d="M1.33333 10.6667H6.66667C7.02029 10.6667 7.35943 10.8071 7.60948 11.0572C7.85952 11.3072 8 11.6464 8 12V22.6667C8 23.0203 7.85952 23.3594 7.60948 23.6095C7.35943 23.8595 7.02029 24 6.66667 24H4C2.97972 24.0001 1.99798 23.6102 1.25565 22.9103C0.513324 22.2103 0.0665233 21.2532 0.00666683 20.2347L6.21393e-09 20V12C6.21393e-09 11.6464 0.140476 11.3072 0.390524 11.0572C0.640573 10.8071 0.979711 10.6667 1.33333 10.6667ZM24 12V20C24.0001 21.0203 23.6102 22.002 22.9103 22.7443C22.2103 23.4867 21.2532 23.9335 20.2347 23.9933L20 24H12C11.6464 24 11.3072 23.8595 11.0572 23.6095C10.8071 23.3594 10.6667 23.0203 10.6667 22.6667V12C10.6667 11.6464 10.8071 11.3072 11.0572 11.0572C11.3072 10.8071 11.6464 10.6667 12 10.6667H22.6667C23.0203 10.6667 23.3594 10.8071 23.6095 11.0572C23.8595 11.3072 24 11.6464 24 12ZM20 6.21393e-09C21.0203 -5.6829e-05 22.002 0.389767 22.7443 1.08971C23.4867 1.78966 23.9335 2.74681 23.9933 3.76533L24 4V6.66667C24 7.02029 23.8595 7.35943 23.6095 7.60948C23.3594 7.85952 23.0203 8 22.6667 8H12C11.6464 8 11.3072 7.85952 11.0572 7.60948C10.8071 7.35943 10.6667 7.02029 10.6667 6.66667V1.33333C10.6667 0.979711 10.8071 0.640573 11.0572 0.390524C11.3072 0.140476 11.6464 6.21393e-09 12 6.21393e-09H20ZM8 1.33333V6.66667C8 7.02029 7.85952 7.35943 7.60948 7.60948C7.35943 7.85952 7.02029 8 6.66667 8H1.33333C0.979711 8 0.640573 7.85952 0.390524 7.60948C0.140476 7.35943 6.21393e-09 7.02029 6.21393e-09 6.66667V4C-5.6829e-05 2.97972 0.389767 1.99798 1.08971 1.25565C1.78966 0.513324 2.74681 0.0665233 3.76533 0.00666683L4 6.21393e-09H6.66667C7.02029 6.21393e-09 7.35943 0.140476 7.60948 0.390524C7.85952 0.640573 8 0.979711 8 1.33333Z" fill="black"/>
</g>
<defs>
<clipPath id="clip0_121_116">
<rect width="24" height="24" fill="white"/>
</clipPath>
</defs>
</svg>
