<svg width="24" height="24" viewBox="0 0 24 24" fill="none" xmlns="http://www.w3.org/2000/svg">
<path d="M14.8813 11.3202C15.5951 11.8393 16.806 13.086 17.4756 14.8149" stroke="#333333" stroke-width="0.5" stroke-linejoin="round"/>
<path d="M12.2255 22.9225C9.40444 22.9225 7.01377 21.5234 6.47021 18.6305M12.0855 22.9225C14.9067 22.9225 17.2973 21.5234 17.8407 18.6305" stroke="#333333" stroke-width="0.5" stroke-linejoin="round"/>
<path d="M9.42967 11.3202C8.71589 11.8393 7.505 13.086 6.83545 14.8149" stroke="#333333" stroke-width="0.5" stroke-linejoin="round"/>
<path d="M11.5941 4.6604C11.8123 3.61084 12.0663 2.26729 12.2257 1.39551C12.3848 2.26729 12.639 3.61084 12.8572 4.6604M11.5941 4.6604C11.409 5.5504 11.2497 6.22906 11.1957 6.22906C11.1379 6.22906 10.693 5.97262 10.1657 5.66173C9.35212 5.18195 8.34234 4.57195 8.25301 4.57195C8.17545 4.57195 8.71234 5.68751 9.23701 6.78151M11.5941 4.6604C11.1179 4.30862 10.1363 3.60506 10.0186 3.60506C9.87145 3.60506 10.1032 5.62484 10.1657 5.66151M9.23701 6.78151C9.70634 7.76062 10.1657 8.72262 10.1657 8.85306C10.1657 8.97706 9.60145 8.73884 8.95323 8.43884C8.80723 8.37173 8.13145 7.02995 7.81167 6.36729L9.23701 6.78151ZM8.95323 8.43862C8.15856 8.07084 7.23789 7.60995 7.07589 7.60995C6.78167 7.60995 9.42989 12.7197 12.2255 12.8577C15.021 12.7197 17.6692 7.60995 17.375 7.60995C17.213 7.60995 16.2923 8.07062 15.4977 8.43862M14.2855 5.66151C14.3479 5.62484 14.5797 3.60506 14.4326 3.60506C14.3148 3.60506 13.333 4.30862 12.857 4.6604C13.0421 5.5504 13.2014 6.22906 13.2554 6.22906C13.3132 6.22906 13.7581 5.97262 14.2855 5.66173C15.099 5.18195 16.1088 4.57195 16.1981 4.57195C16.2759 4.57195 15.7388 5.68751 15.2141 6.78151M15.2141 6.78151C14.7448 7.76062 14.2855 8.72262 14.2855 8.85306C14.2855 8.97706 14.8497 8.73884 15.4979 8.43884C15.6439 8.37173 16.3197 7.02995 16.6395 6.36729L15.2141 6.78151Z" stroke="#333333" stroke-width="0.5" stroke-linejoin="round"/>
<path d="M12.2255 15.7934H11.8062L11.2471 14.8149H5.65552L5.7953 17.6107C5.93507 18.1698 6.74596 19.0085 7.19307 19.0085H10.1286C10.5013 18.8687 11.0702 18.4207 11.2469 17.8903C11.3866 17.4709 11.4333 17.0981 11.5264 17.0516H12.2253M12.0855 15.7934H12.5049L13.064 14.8149H18.6555L18.5157 17.6107C18.376 18.1698 17.5651 19.0085 17.118 19.0085H14.1824C13.8095 18.8687 13.2409 18.4207 13.0642 17.8903C12.9244 17.4709 12.8777 17.0981 12.7846 17.0516H12.0857M6.63396 15.5138H10.548V17.4709C10.2684 17.7505 9.6813 18.3096 9.56952 18.3096H7.75241C7.64063 18.3096 6.96018 17.6572 6.63418 17.3312V15.5138H6.63396ZM17.6771 15.5138H13.7631V17.4709C14.0426 17.7505 14.6297 18.3096 14.7415 18.3096H16.5586C16.6704 18.3096 17.3506 17.6572 17.6769 17.3312V15.5138H17.6771Z" stroke="#333333" stroke-width="0.5" stroke-linejoin="round"/>
<path d="M8.36135 12.3001C9.30579 12.9187 10.2251 13.7856 11.064 14.8025M14.7902 22.3705C14.5311 21.1018 14.0545 19.7689 13.4245 18.4847M7.89335 12.8901C8.66202 13.5278 9.33335 14.1683 9.92024 14.8025M14.0578 22.7165C13.7849 21.4425 13.246 19.3632 11.6776 17.0194M7.34424 13.7854C7.7269 14.1025 8.09379 14.4436 8.44402 14.8027M12.9185 22.8996C12.7102 21.6612 12.0658 19.9756 11.0718 18.2814M10.4162 18.8307C11.1282 19.7056 12.0031 22.0247 12.1658 22.8996M9.07335 18.9934C10.0498 20.1734 10.6398 21.8416 10.8229 22.8181M8.15802 18.9934C8.87002 19.7258 9.76513 21.8416 9.86691 22.6147M9.07335 11.6492C10.5753 12.4596 11.8567 13.7498 12.8918 15.1483M15.9498 21.7603C15.9498 21.3098 15.6593 20.2665 15.1033 18.9934M12.1658 12.8901C12.7909 13.4874 13.3453 14.1343 13.8329 14.8025M16.6211 21.2314C16.5238 20.5929 16.332 19.8258 16.0378 18.9934M13.5289 12.4832C14.4038 12.9918 15.2242 14.1921 15.4413 14.8025M14.2205 12.0154C15.4411 13.1141 15.97 13.9685 16.2956 14.8025" stroke="#333333" stroke-width="0.5" stroke-linejoin="round"/>
</svg>
