<svg width="16" height="16" viewBox="0 0 16 16" fill="none" xmlns="http://www.w3.org/2000/svg">
<path d="M7.19409 11.6684V2.39961C7.19409 2.18744 7.27848 1.98395 7.4287 1.83392C7.57891 1.6839 7.78264 1.59961 7.99508 1.59961C8.20751 1.59961 8.41125 1.6839 8.56146 1.83392C8.71167 1.98395 8.79606 2.18744 8.79606 2.39961V11.6684L10.6327 9.83401C10.7838 9.68828 10.9861 9.60765 11.1961 9.60947C11.4061 9.61129 11.607 9.69543 11.7556 9.84375C11.9041 9.99208 11.9883 10.1927 11.9901 10.4025C11.992 10.6122 11.9112 10.8143 11.7653 10.9652L8.56138 14.1652C8.41117 14.3152 8.20747 14.3994 7.99508 14.3994C7.78269 14.3994 7.57899 14.3152 7.42878 14.1652L4.22485 10.9652C4.07894 10.8143 3.99821 10.6122 4.00003 10.4025C4.00186 10.1927 4.08609 9.99208 4.2346 9.84375C4.38311 9.69543 4.58401 9.61129 4.79402 9.60947C5.00404 9.60765 5.20637 9.68828 5.35744 9.83401L7.19409 11.6684Z" fill="#797FFF"/>
</svg>
