<svg width="16" height="16" viewBox="0 0 16 16" fill="none" xmlns="http://www.w3.org/2000/svg">
<path d="M3.42878 1.83401C3.57899 1.68403 3.78269 1.59978 3.99508 1.59978C4.20747 1.59978 4.41117 1.68403 4.56137 1.83401L7.76531 5.03401C7.91122 5.18489 7.99195 5.38697 7.99013 5.59673C7.9883 5.80649 7.90406 6.00714 7.75555 6.15546C7.60705 6.30379 7.40615 6.38793 7.19613 6.38975C6.98612 6.39157 6.78379 6.31094 6.63272 6.16521L4.79606 4.33081V13.5996C4.79606 13.8118 4.71167 14.0153 4.56146 14.1653C4.41125 14.3153 4.20751 14.3996 3.99508 14.3996C3.78264 14.3996 3.57891 14.3153 3.4287 14.1653C3.27848 14.0153 3.19409 13.8118 3.19409 13.5996V4.33081L1.35744 6.16521C1.20637 6.31094 1.00404 6.39157 0.794024 6.38975C0.584009 6.38793 0.383112 6.30379 0.234603 6.15546C0.0860939 6.00714 0.00185526 5.80649 3.02793e-05 5.59673C-0.0017947 5.38697 0.07894 5.18489 0.224846 5.03401L3.42878 1.83401ZM11.2039 11.6684V2.39961C11.2039 2.18744 11.2883 1.98395 11.4385 1.83392C11.5888 1.6839 11.7925 1.59961 12.0049 1.59961C12.2174 1.59961 12.4211 1.6839 12.5713 1.83392C12.7215 1.98395 12.8059 2.18744 12.8059 2.39961V11.6684L14.6426 9.83401C14.7936 9.68828 14.996 9.60765 15.206 9.60947C15.416 9.61129 15.6169 9.69543 15.7654 9.84375C15.9139 9.99208 15.9981 10.1927 16 10.4025C16.0018 10.6122 15.9211 10.8143 15.7752 10.9652L12.5712 14.1652C12.421 14.3152 12.2173 14.3994 12.0049 14.3994C11.7925 14.3994 11.5888 14.3152 11.4386 14.1652L8.23469 10.9652C8.08878 10.8143 8.00805 10.6122 8.00987 10.4025C8.0117 10.1927 8.09594 9.99208 8.24445 9.84375C8.39295 9.69543 8.59385 9.61129 8.80387 9.60947C9.01388 9.60765 9.21621 9.68828 9.36728 9.83401L11.2039 11.6684Z" fill="#999999"/>
</svg>
