<svg width="16" height="16" viewBox="0 0 16 16" fill="none" xmlns="http://www.w3.org/2000/svg">
<path d="M8.80591 4.33159L8.80591 13.6004C8.80591 13.8126 8.72152 14.016 8.5713 14.1661C8.42109 14.3161 8.21736 14.4004 8.00492 14.4004C7.79249 14.4004 7.58875 14.3161 7.43854 14.1661C7.28833 14.016 7.20394 13.8126 7.20394 13.6004L7.20394 4.33159L5.36728 6.16599C5.21621 6.31172 5.01388 6.39235 4.80387 6.39053C4.59385 6.38871 4.39296 6.30457 4.24445 6.15625C4.09594 6.00792 4.0117 5.80727 4.00987 5.59751C4.00805 5.38775 4.08878 5.18567 4.23469 5.03479L7.43862 1.83479C7.58883 1.68481 7.79253 1.60056 8.00492 1.60056C8.21731 1.60056 8.42101 1.68481 8.57122 1.83479L11.7752 5.03479C11.9211 5.18567 12.0018 5.38775 12 5.59751C11.9981 5.80727 11.9139 6.00792 11.7654 6.15625C11.6169 6.30457 11.416 6.38871 11.206 6.39053C10.996 6.39235 10.7936 6.31172 10.6426 6.16599L8.80591 4.33159Z" fill="#797FFF"/>
</svg>
